<mxfile host="app.diagrams.net" modified="2023-09-23T14:35:09.619Z" agent="Mozilla/5.0 (Windows NT 10.0; Win64; x64) AppleWebKit/537.36 (KHTML, like Gecko) Chrome/116.0.0.0 Safari/537.36" etag="oe9d0z0RfmP_PsOVD7xd" version="21.8.1" type="device">
  <diagram name="Trang-1" id="-3vX8ksDVOqcYZO1HRlX">
    <mxGraphModel dx="1290" dy="534" grid="1" gridSize="10" guides="1" tooltips="1" connect="1" arrows="1" fold="1" page="1" pageScale="1" pageWidth="827" pageHeight="1169" math="0" shadow="0">
      <root>
        <mxCell id="0" />
        <mxCell id="1" parent="0" />
        <mxCell id="S-uWY9ZT7ELeKDSGIONx-1" value="admin" style="shape=umlActor;verticalLabelPosition=bottom;verticalAlign=top;html=1;outlineConnect=0;" vertex="1" parent="1">
          <mxGeometry x="120" y="160" width="30" height="64" as="geometry" />
        </mxCell>
        <mxCell id="S-uWY9ZT7ELeKDSGIONx-3" value="giáo viên" style="shape=umlActor;verticalLabelPosition=bottom;verticalAlign=top;html=1;outlineConnect=0;" vertex="1" parent="1">
          <mxGeometry x="720" y="330" width="30" height="64" as="geometry" />
        </mxCell>
        <mxCell id="S-uWY9ZT7ELeKDSGIONx-65" value="include" style="edgeStyle=orthogonalEdgeStyle;rounded=0;orthogonalLoop=1;jettySize=auto;html=1;entryX=0.5;entryY=0;entryDx=0;entryDy=0;dashed=1;dashPattern=1 1;" edge="1" parent="1" source="S-uWY9ZT7ELeKDSGIONx-5" target="S-uWY9ZT7ELeKDSGIONx-6">
          <mxGeometry relative="1" as="geometry" />
        </mxCell>
        <mxCell id="S-uWY9ZT7ELeKDSGIONx-5" value="quản lí điểm" style="ellipse;whiteSpace=wrap;html=1;" vertex="1" parent="1">
          <mxGeometry x="290" y="140" width="170" height="113" as="geometry" />
        </mxCell>
        <mxCell id="S-uWY9ZT7ELeKDSGIONx-6" value="đăng nhập" style="ellipse;whiteSpace=wrap;html=1;" vertex="1" parent="1">
          <mxGeometry x="330" y="350" width="120" height="84" as="geometry" />
        </mxCell>
        <mxCell id="S-uWY9ZT7ELeKDSGIONx-7" value="nhập điểm" style="ellipse;whiteSpace=wrap;html=1;" vertex="1" parent="1">
          <mxGeometry x="160" y="260" width="120" height="84" as="geometry" />
        </mxCell>
        <mxCell id="S-uWY9ZT7ELeKDSGIONx-8" value="sửa điểm" style="ellipse;whiteSpace=wrap;html=1;" vertex="1" parent="1">
          <mxGeometry x="540" y="114" width="120" height="80" as="geometry" />
        </mxCell>
        <mxCell id="S-uWY9ZT7ELeKDSGIONx-9" value="tạo báo cáo" style="ellipse;whiteSpace=wrap;html=1;" vertex="1" parent="1">
          <mxGeometry x="450" y="300" width="120" height="84" as="geometry" />
        </mxCell>
        <mxCell id="S-uWY9ZT7ELeKDSGIONx-10" value="" style="endArrow=classic;html=1;rounded=0;entryX=-0.007;entryY=0.448;entryDx=0;entryDy=0;entryPerimeter=0;" edge="1" parent="1" source="S-uWY9ZT7ELeKDSGIONx-1" target="S-uWY9ZT7ELeKDSGIONx-5">
          <mxGeometry width="50" height="50" relative="1" as="geometry">
            <mxPoint x="170" y="170" as="sourcePoint" />
            <mxPoint x="260" y="160" as="targetPoint" />
          </mxGeometry>
        </mxCell>
        <mxCell id="S-uWY9ZT7ELeKDSGIONx-11" value="" style="endArrow=classic;html=1;rounded=0;" edge="1" parent="1" source="S-uWY9ZT7ELeKDSGIONx-3" target="S-uWY9ZT7ELeKDSGIONx-5">
          <mxGeometry width="50" height="50" relative="1" as="geometry">
            <mxPoint x="170" y="339" as="sourcePoint" />
            <mxPoint x="288" y="339" as="targetPoint" />
          </mxGeometry>
        </mxCell>
        <mxCell id="S-uWY9ZT7ELeKDSGIONx-51" style="edgeStyle=orthogonalEdgeStyle;rounded=0;orthogonalLoop=1;jettySize=auto;html=1;entryX=0;entryY=0.5;entryDx=0;entryDy=0;" edge="1" parent="1" source="S-uWY9ZT7ELeKDSGIONx-35" target="S-uWY9ZT7ELeKDSGIONx-40">
          <mxGeometry relative="1" as="geometry" />
        </mxCell>
        <mxCell id="S-uWY9ZT7ELeKDSGIONx-35" value="phụ huynh" style="shape=umlActor;verticalLabelPosition=bottom;verticalAlign=top;html=1;" vertex="1" parent="1">
          <mxGeometry x="120" y="430" width="30" height="60" as="geometry" />
        </mxCell>
        <mxCell id="S-uWY9ZT7ELeKDSGIONx-52" style="edgeStyle=orthogonalEdgeStyle;rounded=0;orthogonalLoop=1;jettySize=auto;html=1;entryX=0;entryY=1;entryDx=0;entryDy=0;" edge="1" parent="1" source="S-uWY9ZT7ELeKDSGIONx-36" target="S-uWY9ZT7ELeKDSGIONx-40">
          <mxGeometry relative="1" as="geometry" />
        </mxCell>
        <mxCell id="S-uWY9ZT7ELeKDSGIONx-60" style="edgeStyle=orthogonalEdgeStyle;rounded=0;orthogonalLoop=1;jettySize=auto;html=1;entryX=0;entryY=0.5;entryDx=0;entryDy=0;" edge="1" parent="1" target="S-uWY9ZT7ELeKDSGIONx-42">
          <mxGeometry relative="1" as="geometry">
            <mxPoint x="150" y="600" as="sourcePoint" />
          </mxGeometry>
        </mxCell>
        <mxCell id="S-uWY9ZT7ELeKDSGIONx-36" value="sinh viên" style="shape=umlActor;verticalLabelPosition=bottom;verticalAlign=top;html=1;" vertex="1" parent="1">
          <mxGeometry x="120" y="560" width="30" height="60" as="geometry" />
        </mxCell>
        <mxCell id="S-uWY9ZT7ELeKDSGIONx-54" style="edgeStyle=orthogonalEdgeStyle;rounded=0;orthogonalLoop=1;jettySize=auto;html=1;entryX=0.5;entryY=1;entryDx=0;entryDy=0;" edge="1" parent="1" source="S-uWY9ZT7ELeKDSGIONx-37" target="S-uWY9ZT7ELeKDSGIONx-40">
          <mxGeometry relative="1" as="geometry" />
        </mxCell>
        <mxCell id="S-uWY9ZT7ELeKDSGIONx-37" value="guest" style="shape=umlActor;verticalLabelPosition=bottom;verticalAlign=top;html=1;" vertex="1" parent="1">
          <mxGeometry x="120" y="700" width="30" height="60" as="geometry" />
        </mxCell>
        <mxCell id="S-uWY9ZT7ELeKDSGIONx-38" value="BGH" style="shape=umlActor;verticalLabelPosition=bottom;verticalAlign=top;html=1;" vertex="1" parent="1">
          <mxGeometry x="720" y="190" width="34" height="71" as="geometry" />
        </mxCell>
        <mxCell id="S-uWY9ZT7ELeKDSGIONx-39" value="CB phòng đt" style="shape=umlActor;verticalLabelPosition=bottom;verticalAlign=top;html=1;" vertex="1" parent="1">
          <mxGeometry x="740" y="570" width="30" height="60" as="geometry" />
        </mxCell>
        <mxCell id="S-uWY9ZT7ELeKDSGIONx-48" value="include" style="edgeStyle=orthogonalEdgeStyle;rounded=0;orthogonalLoop=1;jettySize=auto;html=1;exitX=0.5;exitY=0;exitDx=0;exitDy=0;entryX=0;entryY=0.5;entryDx=0;entryDy=0;dashed=1;dashPattern=1 1;" edge="1" parent="1" source="S-uWY9ZT7ELeKDSGIONx-40" target="S-uWY9ZT7ELeKDSGIONx-6">
          <mxGeometry relative="1" as="geometry" />
        </mxCell>
        <mxCell id="S-uWY9ZT7ELeKDSGIONx-41" value="gửi thông báo" style="ellipse;whiteSpace=wrap;html=1;" vertex="1" parent="1">
          <mxGeometry x="470" y="480" width="140" height="70" as="geometry" />
        </mxCell>
        <mxCell id="S-uWY9ZT7ELeKDSGIONx-61" style="edgeStyle=orthogonalEdgeStyle;rounded=0;orthogonalLoop=1;jettySize=auto;html=1;dashed=1;dashPattern=1 1;" edge="1" parent="1" source="S-uWY9ZT7ELeKDSGIONx-42" target="S-uWY9ZT7ELeKDSGIONx-6">
          <mxGeometry relative="1" as="geometry" />
        </mxCell>
        <mxCell id="S-uWY9ZT7ELeKDSGIONx-62" value="include" style="edgeLabel;html=1;align=center;verticalAlign=middle;resizable=0;points=[];" vertex="1" connectable="0" parent="S-uWY9ZT7ELeKDSGIONx-61">
          <mxGeometry x="0.3452" y="-1" relative="1" as="geometry">
            <mxPoint as="offset" />
          </mxGeometry>
        </mxCell>
        <mxCell id="S-uWY9ZT7ELeKDSGIONx-42" value="xem lịch" style="ellipse;whiteSpace=wrap;html=1;" vertex="1" parent="1">
          <mxGeometry x="330" y="630" width="140" height="80" as="geometry" />
        </mxCell>
        <mxCell id="S-uWY9ZT7ELeKDSGIONx-47" value="include" style="edgeStyle=orthogonalEdgeStyle;rounded=0;orthogonalLoop=1;jettySize=auto;html=1;entryX=1;entryY=1;entryDx=0;entryDy=0;dashed=1;dashPattern=1 1;" edge="1" parent="1" source="S-uWY9ZT7ELeKDSGIONx-41" target="S-uWY9ZT7ELeKDSGIONx-6">
          <mxGeometry relative="1" as="geometry" />
        </mxCell>
        <mxCell id="S-uWY9ZT7ELeKDSGIONx-50" style="edgeStyle=orthogonalEdgeStyle;rounded=0;orthogonalLoop=1;jettySize=auto;html=1;entryX=1;entryY=0.5;entryDx=0;entryDy=0;" edge="1" parent="1" source="S-uWY9ZT7ELeKDSGIONx-3" target="S-uWY9ZT7ELeKDSGIONx-41">
          <mxGeometry relative="1" as="geometry" />
        </mxCell>
        <mxCell id="S-uWY9ZT7ELeKDSGIONx-56" style="edgeStyle=orthogonalEdgeStyle;rounded=0;orthogonalLoop=1;jettySize=auto;html=1;entryX=1.007;entryY=0.605;entryDx=0;entryDy=0;entryPerimeter=0;" edge="1" parent="1" source="S-uWY9ZT7ELeKDSGIONx-38" target="S-uWY9ZT7ELeKDSGIONx-5">
          <mxGeometry relative="1" as="geometry" />
        </mxCell>
        <mxCell id="S-uWY9ZT7ELeKDSGIONx-57" style="edgeStyle=orthogonalEdgeStyle;rounded=0;orthogonalLoop=1;jettySize=auto;html=1;entryX=0.5;entryY=1;entryDx=0;entryDy=0;" edge="1" parent="1" source="S-uWY9ZT7ELeKDSGIONx-39" target="S-uWY9ZT7ELeKDSGIONx-41">
          <mxGeometry relative="1" as="geometry" />
        </mxCell>
        <mxCell id="S-uWY9ZT7ELeKDSGIONx-40" value="tìm kiếm" style="ellipse;whiteSpace=wrap;html=1;" vertex="1" parent="1">
          <mxGeometry x="240" y="460" width="140" height="70" as="geometry" />
        </mxCell>
        <mxCell id="S-uWY9ZT7ELeKDSGIONx-64" value="extend" style="edgeStyle=orthogonalEdgeStyle;rounded=0;orthogonalLoop=1;jettySize=auto;html=1;entryX=0.315;entryY=0.966;entryDx=0;entryDy=0;entryPerimeter=0;dashed=1;dashPattern=1 1;" edge="1" parent="1" source="S-uWY9ZT7ELeKDSGIONx-7" target="S-uWY9ZT7ELeKDSGIONx-5">
          <mxGeometry relative="1" as="geometry" />
        </mxCell>
        <mxCell id="S-uWY9ZT7ELeKDSGIONx-66" value="extend" style="edgeStyle=orthogonalEdgeStyle;rounded=0;orthogonalLoop=1;jettySize=auto;html=1;entryX=0.791;entryY=0.917;entryDx=0;entryDy=0;entryPerimeter=0;dashed=1;dashPattern=1 1;" edge="1" parent="1" source="S-uWY9ZT7ELeKDSGIONx-9" target="S-uWY9ZT7ELeKDSGIONx-5">
          <mxGeometry relative="1" as="geometry" />
        </mxCell>
        <mxCell id="S-uWY9ZT7ELeKDSGIONx-67" value="extend" style="edgeStyle=orthogonalEdgeStyle;rounded=0;orthogonalLoop=1;jettySize=auto;html=1;entryX=0.979;entryY=0.301;entryDx=0;entryDy=0;entryPerimeter=0;dashed=1;dashPattern=1 1;" edge="1" parent="1" source="S-uWY9ZT7ELeKDSGIONx-8" target="S-uWY9ZT7ELeKDSGIONx-5">
          <mxGeometry relative="1" as="geometry" />
        </mxCell>
      </root>
    </mxGraphModel>
  </diagram>
</mxfile>
